<svg xmlns="http://www.w3.org/2000/svg" xmlns:xlink="http://www.w3.org/1999/xlink" fill="none" version="1.1" width="100" height="100" viewBox="0 0 10 30"><g transform="matrix(1,-5.400848479553133e-8,-5.400848479553133e-8,-1,0.0000017822800507570297,66.00000194430555)"><path d="M13.500001782279998,46.73600097215272Q12.636001782279997,50.336000972152725,11.700001782279998,52.85600097215273Q10.764001782279998,55.376000972152724,9.084001782279998,58.66400097215273Q8.916001782279999,58.73600097215272,8.616001782279998,58.760000972152724Q8.316001782279999,58.784000972152725,7.644001782279998,58.784000972152725Q6.972001782279999,55.208000972152725,6.036001782279998,52.016000972152725Q5.100001782279998,48.824000972152724,3.876001782279998,45.92000097215273Q4.284001782279998,45.680000972152726,4.7880017822799985,45.54800097215273Q5.292001782279998,45.41600097215273,5.844001782279999,45.36800097215273Q6.708001782279998,47.76800097215273,7.380001782279998,50.336000972152725Q8.052001782279998,52.90400097215273,8.748001782279998,56.45600097215272Q9.924001782279998,53.744000972152726,10.716001782279998,51.104000972152726Q11.508001782279997,48.464000972152725,11.820001782279999,46.184000972152724Q12.228001782279998,46.232000972152726,12.672001782279999,46.376000972152724Q13.116001782279998,46.52000097215273,13.500001782279998,46.73600097215272Z" fill="#005DFF" fill-opacity="1"/></g></svg>